<?xml version="1.0" encoding="UTF-8"?><svg id="Layer_2" xmlns="http://www.w3.org/2000/svg" viewBox="0 0 162.03 131.69"><defs><style>.cls-1{fill:#2176ac;}</style></defs><g id="logo_blue"><path class="cls-1" d="m123.29,125.78c-3.66.04-6.98.6-10.06-.02-7-1.42-13.03,1.38-19.23,3.6-11.88,4.24-23.04,2.4-34.21-2.99-3.02-1.46-7.32-.85-10.92-.37-12.83,1.71-24.16-1.83-33.59-10.23C4.12,105.81-1.14,92.93.21,77.88c1.03-11.52,5.78-21.15,14.55-29.24,5.73-5.29,12.59-7.36,19.22-10.42,1.35-.62,2.78-2.38,3.05-3.82C40.37,16.82,55.16,3.36,73.09.64c17.49-2.66,31.63,3.04,42.41,16.35,4.06,5.02,5.69,11.97,8.65,17.94.74,1.49,2.17,3.4,3.58,3.69,18.03,3.65,30.19,18.53,33.53,35.3,4.26,21.35-9.44,45.24-32.13,51.32-1.72.46-3.59.38-5.84.55m-17.04-95.55c-6.14-11.06-15.83-16.22-28.15-15.34-14.14,1.01-22.69,9.55-26.81,22.01,5.38,2.24,11.21,3.83,16.12,6.89,11.36,7.08,16.1,18.3,16.63,31.21.47,11.37,2.68,21.61,12.58,28.78,11.4,8.25,26.02,11.77,38.9,1.43,9.98-8.01,13.3-19.1,11.3-28.73-2.71-13-12.16-21.81-23.87-23.72-4.16-.68-8.37-1.06-11.32-1.43-1.75-7.26-3.34-13.88-5.39-21.12M32.62,108.88c9.13,4.89,18.03,3.23,26.66-1.11,8.61,7.6,20.3,11.13,27.38,7.81-7.62-6.61-13.41-14.39-15.24-24.42-1.09-5.96-1.46-12.05-2.3-18.06-.94-6.72-3.63-12.4-9.39-16.53-6-4.29-12.88-6.32-19.6-4.41-6.25,1.77-12.6,2.63-17.82,9.21-11.63,14.67-9.6,38.29,10.32,47.49Z"/></g></svg>